<svg xmlns="http://www.w3.org/2000/svg" xmlns:xlink="http://www.w3.org/1999/xlink" preserveAspectRatio="xMidYMid meet" viewBox="0 0 640 640" width="18" height="18"><style><![CDATA[.B{fill-opacity:0}.C{stroke:#000}.D{stroke-opacity:0}.E{fill:#03aa6f}]]></style><defs><path d="M518.6 121.47l-55.17-11.04-33.1-11.03-44.14 11.03-33.1-11.03 22.07-44.14h44.14l43.26-21.63a316.31 316.31 0 0 1 89.17 65.77l-33.1 22.07z" id="A"/><path d="M297.9 55.26l-11.04 33.1-33.1 11.04-33.1 55.18-55.18 33.1-77.24 11.04v33.1l22.07 22.07v44.14L44.1 253.9l-19.2-57.7A319.78 319.78 0 0 1 200.36 23.26l31.34 20.96 66.2 11.04z" id="B"/><path d="M319.98 364.24l-11.04 55.18-44.14 44.14v33.1l-44.14 33.1v55.18l-33.1-11.04-22.08-55.17V408.4l-55.17-11.04-22.07-44.14v-33.1l55.17-55.17 22.07 44.14h77.25l33.1 55.17h44.14z" id="C"/><path d="M599.17 163.73c60.24 107.48 53.38 240-17.66 340.66l-29.8-29.8v-44.14l-44.14-88.3v-44.14l-33.1-22.07L430.33 287l-77.25-33.1-11.03-77.25 33.1-33.1h66.2l22.07 33.1 66.2 11.04 66.2-22.07 3.3-1.88z" id="D"/><path d="M386.2 110.43l44.14-11.03 33.1 11.03 55.17 11.04 33.1-22.07c18.48 19.34 34.43 40.96 47.45 64.33-.22.13-1.32.75-3.3 1.88l-66.2 22.07-66.2-11.03-22.07-33.1h-66.2l-33.1 33.1 11.04 77.24 77.24 33.1 44.14-11.04 33.1 22.07v44.14l44.14 88.3v44.14l29.8 29.8c-101.9 144.4-301.6 178.85-446 76.94C12.9 494.77-33.12 334.6 24.9 196.18l19.2 57.7 66.2 44.14-22.07 22.07v33.1l22.07 44.14 55.17 11.04v110.35l22.07 55.17 33.1 11.04v-55.18l44.14-33.1v-33.1l44.14-44.14 11.04-55.18h-44.14l-33.1-55.17h-77.25l-22.07-44.14-33.1 33.1V253.9l-22.07-22.07v-33.1l77.24-11.04 55.18-33.1 33.1-55.17 33.1-11.04 11.04-33.1-66.2-11.04-31.34-20.97c84.86-34.17 180.3-30.4 262.2 10.38L419.3 55.26h-44.15L353.08 99.4l33.1 11.03z" id="E"/></defs><use xlink:href="#A" class="E"/><use xlink:href="#A" class="B C D"/><use xlink:href="#B" class="E"/><use xlink:href="#B" class="B C D"/><use xlink:href="#C" class="E"/><use xlink:href="#C" class="B C D"/><use xlink:href="#D" class="E"/><use xlink:href="#D" class="B C D"/><use xlink:href="#E" fill="#86daf1"/><use xlink:href="#E" class="B C D"/></svg>